<svg width="512" height="512" viewBox="0 0 512 512" xmlns="http://www.w3.org/2000/svg">
  <rect width="512" height="512" rx="64" fill="#ffffff"/>
  <g transform="translate(64,64) scale(0.75)">
    <!-- Spade -->
    <path d="M256 32c-88 96-168 168-168 256c0 44 36 80 80 80c28 0 52-16 64-40 c12 24 36 40 64 40c44 0 80-36 80-80c0-88-80-160-168-256" fill="#000000"/>
    <!-- Heart -->
    <path d="M256 480c-88-96-168-168-168-256c0-44 36-80 80-80c28 0 52 16 64 40 c12-24 36-40 64-40c44 0 80 36 80 80c0 88-80 160-168 256" fill="#ff0000"/>
  </g>
</svg>